<?xml version="1.0" standalone="no"?>
<!DOCTYPE svg PUBLIC "-//W3C//DTD SVG 20010904//EN"
 "http://www.w3.org/TR/2001/REC-SVG-20010904/DTD/svg10.dtd">
<svg version="1.0" xmlns="http://www.w3.org/2000/svg"
 width="257.000000pt" height="257.000000pt" viewBox="0 0 257.000000 257.000000"
 preserveAspectRatio="xMidYMid meet">
<metadata>
Created by potrace 1.14, written by Peter Selinger 2001-2017
</metadata>
<g transform="translate(0.000000,257.000000) scale(0.100000,-0.100000)"
fill="#000000" stroke="none">
<path d="M327 1883 c-3 -5 -30 -107 -62 -228 -31 -121 -65 -242 -75 -270 -22
-58 -49 -160 -60 -226 -5 -25 -23 -100 -40 -165 -18 -65 -36 -139 -42 -164 -5
-25 -14 -55 -20 -68 -8 -15 -8 -26 -1 -33 7 -7 297 -10 884 -10 481 0 910 -4
954 -8 44 -4 82 -4 83 1 2 4 17 8 32 8 26 0 31 5 41 43 6 23 22 80 36 127 13
47 35 128 49 180 14 52 30 100 35 105 6 6 59 10 119 10 59 0 111 3 114 6 4 3
29 98 57 210 27 112 65 265 83 339 19 74 32 138 29 143 -2 4 -501 7 -1108 7
-607 0 -1106 -3 -1108 -7z"/>
</g>
</svg>
